<svg width="14" height="13" viewBox="0 0 14 13" fill="none" xmlns="http://www.w3.org/2000/svg">
<path d="M13.6895 6.37637C13.6895 6.82559 13.3328 7.17747 12.9286 7.17747H12.1676L12.1843 11.1755C12.1843 11.2429 12.1795 11.3103 12.1724 11.3776V11.7819C12.1724 12.3335 11.7467 12.7802 11.2212 12.7802H10.8408C10.8146 12.7802 10.7885 12.7802 10.7623 12.7777C10.729 12.7802 10.6957 12.7802 10.6624 12.7802L9.88962 12.7777H9.31892C8.79341 12.7777 8.36777 12.331 8.36777 11.7794V11.1805V9.58327C8.36777 9.14155 8.02773 8.78467 7.60685 8.78467H6.085C5.66412 8.78467 5.32408 9.14155 5.32408 9.58327V11.1805V11.7794C5.32408 12.331 4.89844 12.7777 4.37293 12.7777H3.80224H3.04369C3.00802 12.7777 2.97235 12.7752 2.93669 12.7727C2.90815 12.7752 2.87962 12.7777 2.85108 12.7777H2.47062C1.94511 12.7777 1.51947 12.331 1.51947 11.7794V8.98432C1.51947 8.96186 1.51947 8.9369 1.52185 8.91444V7.17498H0.760923C0.332904 7.17498 0 6.82559 0 6.37388C0 6.14927 0.0713365 5.94962 0.237788 5.77492L6.3323 0.199652C6.49875 0.0249564 6.68898 0 6.85544 0C7.02189 0 7.21212 0.0499129 7.35479 0.174695L13.4279 5.77742C13.6181 5.95211 13.7133 6.15176 13.6895 6.37637Z" fill="#404040"/>
</svg>
