<svg width="10" height="13" viewBox="0 0 10 13" fill="none" xmlns="http://www.w3.org/2000/svg">
<path d="M0.00237661 4.68028C0.00237661 2.09446 2.04629 0 4.56554 0C7.08479 0 9.12871 2.09446 9.12871 4.68028C9.12871 7.64082 6.27198 11.1895 5.0789 12.542C4.79845 12.8596 4.33025 12.8596 4.04981 12.542C2.85673 11.1895 0 7.64082 0 4.68028H0.00237661ZM4.56554 6.35287C5.4045 6.35287 6.0866 5.64066 6.0866 4.76465C6.0866 3.88865 5.4045 3.17644 4.56554 3.17644C3.72659 3.17644 3.04449 3.88865 3.04449 4.76465C3.04449 5.64066 3.72659 6.35287 4.56554 6.35287Z" fill="#404040"/>
</svg>
