<svg width="28" height="28" viewBox="0 0 28 28" fill="none" xmlns="http://www.w3.org/2000/svg">
<circle cx="13.6931" cy="13.6931" r="13.6931" fill="#D6B36E"/>
<path d="M12.7423 9.41112L15.8075 12.9143C15.9873 13.1197 16.0896 13.4021 16.0896 13.6931C16.0896 13.984 15.9873 14.2665 15.8075 14.4719L12.7423 17.975C12.5825 18.1576 12.3679 18.2574 12.1432 18.2574C11.6764 18.2574 11.297 17.8238 11.297 17.2903V15.5188H8.10198C7.66017 15.5188 7.30322 15.1109 7.30322 14.6059V12.7802C7.30322 12.2753 7.66017 11.8673 8.10198 11.8673H11.297V10.0958C11.297 9.56232 11.6764 9.12871 12.1432 9.12871C12.3679 9.12871 12.5825 9.2314 12.7423 9.41112ZM16.0896 18.2574H17.6871C18.1289 18.2574 18.4859 17.8495 18.4859 17.3445V10.0416C18.4859 9.53664 18.1289 9.12871 17.6871 9.12871H16.0896C15.6478 9.12871 15.2908 8.72077 15.2908 8.21583C15.2908 7.7109 15.6478 7.30296 16.0896 7.30296H17.6871C19.0101 7.30296 20.0834 8.52963 20.0834 10.0416V17.3445C20.0834 18.8565 19.0101 20.0832 17.6871 20.0832H16.0896C15.6478 20.0832 15.2908 19.6752 15.2908 19.1703C15.2908 18.6654 15.6478 18.2574 16.0896 18.2574Z" fill="#404040"/>
</svg>
