<svg width="150" height="150" viewBox="0 0 150 150" fill="none" xmlns="http://www.w3.org/2000/svg">
<path fill-rule="evenodd" clip-rule="evenodd" d="M53.125 25C55.7484 25 57.875 27.132 57.875 29.7619V34.5238H91.125V29.7619C91.125 27.132 93.2516 25 95.875 25C98.4984 25 100.625 27.132 100.625 29.7619V34.6414C112.627 35.836 122 45.9873 122 58.3333V101.19C122 114.34 111.367 125 98.25 125H50.75C37.6332 125 27 114.34 27 101.19V58.3333C27 45.9873 36.3734 35.836 48.375 34.6414V29.7619C48.375 27.132 50.5016 25 53.125 25ZM37.3109 53.5714H111.689C109.733 48.0229 104.455 44.0476 98.25 44.0476H50.75C44.5455 44.0476 39.2671 48.0229 37.3109 53.5714ZM112.5 63.0952H36.5V101.19C36.5 109.08 42.8799 115.476 50.75 115.476H98.25C106.12 115.476 112.5 109.08 112.5 101.19V63.0952ZM46 75C46 72.3701 48.1266 70.2381 50.75 70.2381H98.25C100.873 70.2381 103 72.3701 103 75C103 77.6299 100.873 79.7619 98.25 79.7619H50.75C48.1266 79.7619 46 77.6299 46 75ZM46 89.2857C46 86.6558 48.1266 84.5238 50.75 84.5238H98.25C100.873 84.5238 103 86.6558 103 89.2857C103 91.9156 100.873 94.0476 98.25 94.0476H50.75C48.1266 94.0476 46 91.9156 46 89.2857ZM46 103.571C46 100.941 48.1266 98.8095 50.75 98.8095H98.25C100.873 98.8095 103 100.941 103 103.571C103 106.201 100.873 108.333 98.25 108.333H50.75C48.1266 108.333 46 106.201 46 103.571Z" fill="#404040"/>
<circle cx="75" cy="75" r="73" stroke="#9B0E17" stroke-width="4"/>
</svg>
