<svg width="28" height="28" viewBox="0 0 28 28" fill="none" xmlns="http://www.w3.org/2000/svg">
<circle cx="13.6931" cy="13.6931" r="13.6931" fill="#D6B36E"/>
<path d="M9.13128 11.9832C9.13128 9.39743 11.1752 7.30296 13.6944 7.30296C16.2137 7.30296 18.2576 9.39743 18.2576 11.9832C18.2576 14.9438 15.4009 18.4925 14.2078 19.8449C13.9274 20.1626 13.4592 20.1626 13.1787 19.8449C11.9856 18.4925 9.12891 14.9438 9.12891 11.9832H9.13128ZM13.6944 13.6558C14.5334 13.6558 15.2155 12.9436 15.2155 12.0676C15.2155 11.1916 14.5334 10.4794 13.6944 10.4794C12.8555 10.4794 12.1734 11.1916 12.1734 12.0676C12.1734 12.9436 12.8555 13.6558 13.6944 13.6558Z" fill="#404040"/>
</svg>
