<svg width="36" height="36" viewBox="0 0 36 36" fill="none" xmlns="http://www.w3.org/2000/svg">
<g clip-path="url(#clip0_2209_27)">
<path d="M28.8493 16.2423L29.6439 15.4478L27.2603 13.0642L22.8939 8.69775L20.5103 6.31416L19.7157 7.10869L18.1267 8.69775L4.12042 22.704C3.38917 23.4353 2.8548 24.3423 2.55949 25.3337L0.0704242 33.7993C-0.105357 34.3899 0.0563617 35.0298 0.49933 35.4657C0.942299 35.9017 1.57511 36.0634 2.16574 35.8946L10.6243 33.4056C11.6157 33.1103 12.5228 32.5759 13.254 31.8446L27.2603 17.8384L28.8493 16.2423ZM11.2501 28.0829L10.6103 29.679C10.329 29.897 10.0126 30.0587 9.67511 30.1642L4.17667 31.7813L5.79386 26.2899C5.8923 25.9454 6.06105 25.629 6.27902 25.3548L7.87511 24.7149V26.9649C7.87511 27.5837 8.38136 28.0899 9.00011 28.0899H11.2501V28.0829ZM25.5025 1.31494L24.49 2.33447L22.9009 3.92354L22.0993 4.71807L24.4829 7.10166L28.8493 11.4681L31.2329 13.8517L32.0275 13.0571L33.6165 11.4681L34.6361 10.4485C36.3939 8.69072 36.3939 5.84307 34.6361 4.08525L31.8728 1.31494C30.115 -0.442871 27.2673 -0.442871 25.5095 1.31494H25.5025ZM22.1696 13.1274L12.0446 23.2524C11.6087 23.6884 10.8915 23.6884 10.4556 23.2524C10.0196 22.8165 10.0196 22.0993 10.4556 21.6634L20.5806 11.5384C21.0165 11.1024 21.7337 11.1024 22.1696 11.5384C22.6056 11.9743 22.6056 12.6915 22.1696 13.1274Z" fill="#404040"/>
</g>
<defs>
<clipPath id="clip0_2209_27">
<rect width="36" height="36" fill="white"/>
</clipPath>
</defs>
</svg>
