<svg width="32" height="36" viewBox="0 0 32 36" fill="none" xmlns="http://www.w3.org/2000/svg">
<g clip-path="url(#clip0_2209_29)">
<mask id="mask0_2209_29" style="mask-type:luminance" maskUnits="userSpaceOnUse" x="0" y="0" width="32" height="36">
<path d="M32 0H0V36H32V0Z" fill="white"/>
</mask>
<g mask="url(#mask0_2209_29)">
<path d="M9.65716 1.24453C10.0428 0.478125 10.8357 0 11.7 0H20.3C21.1643 0 21.9572 0.478125 22.3428 1.24453L22.8572 2.25H29.7143C30.9786 2.25 32 3.25547 32 4.5C32 5.74453 30.9786 6.75 29.7143 6.75H2.28572C1.02143 6.75 0 5.74453 0 4.5C0 3.25547 1.02143 2.25 2.28572 2.25H9.14284L9.65716 1.24453ZM2.28572 9H29.7143V31.5C29.7143 33.9821 27.6643 36 25.1428 36H6.85715C4.33572 36 2.28572 33.9821 2.28572 31.5V9ZM9.14284 13.5C8.51428 13.5 8 14.0063 8 14.625V30.375C8 30.9937 8.51428 31.5 9.14284 31.5C9.77147 31.5 10.2857 30.9937 10.2857 30.375V14.625C10.2857 14.0063 9.77147 13.5 9.14284 13.5ZM16 13.5C15.3715 13.5 14.8572 14.0063 14.8572 14.625V30.375C14.8572 30.9937 15.3715 31.5 16 31.5C16.6285 31.5 17.1428 30.9937 17.1428 30.375V14.625C17.1428 14.0063 16.6285 13.5 16 13.5ZM22.8572 13.5C22.2285 13.5 21.7143 14.0063 21.7143 14.625V30.375C21.7143 30.9937 22.2285 31.5 22.8572 31.5C23.4857 31.5 24 30.9937 24 30.375V14.625C24 14.0063 23.4857 13.5 22.8572 13.5Z" fill="#404040"/>
</g>
</g>
<defs>
<clipPath id="clip0_2209_29">
<rect width="32" height="36" fill="white"/>
</clipPath>
</defs>
</svg>
