<svg width="150" height="150" viewBox="0 0 150 150" fill="none" xmlns="http://www.w3.org/2000/svg">
<circle cx="75" cy="75" r="73" stroke="#9B0E17" stroke-width="4"/>
<path d="M121.856 57.5391C122.481 59.2383 121.953 61.1328 120.606 62.3437L112.148 70.0391C112.363 71.6602 112.481 73.3203 112.481 75C112.481 76.6797 112.363 78.3398 112.148 79.9609L120.606 87.6562C121.953 88.8672 122.481 90.7617 121.856 92.4609C120.996 94.7852 119.961 97.0117 118.77 99.1602L117.852 100.742C116.563 102.891 115.117 104.922 113.535 106.836C112.383 108.242 110.469 108.711 108.75 108.164L97.8711 104.707C95.254 106.719 92.3633 108.398 89.2774 109.668L86.836 120.82C86.4454 122.598 85.0782 124.004 83.2813 124.297C80.586 124.746 77.8125 124.98 74.9805 124.98C72.1485 124.98 69.375 124.746 66.6797 124.297C64.8829 124.004 63.5157 122.598 63.125 120.82L60.6836 109.668C57.5977 108.398 54.7071 106.719 52.0899 104.707L41.2305 108.184C39.5118 108.73 37.5977 108.242 36.4454 106.855C34.8633 104.941 33.418 102.91 32.129 100.762L31.211 99.1797C30.0196 97.0312 28.9844 94.8047 28.1251 92.4805C27.5001 90.7813 28.0274 88.8867 29.3751 87.6758L37.8321 79.9805C37.6172 78.3398 37.5001 76.6797 37.5001 75C37.5001 73.3203 37.6172 71.6602 37.8321 70.0391L29.3751 62.3437C28.0274 61.1328 27.5001 59.2383 28.1251 57.5391C28.9844 55.2148 30.0196 52.9883 31.211 50.8398L32.129 49.2578C33.418 47.1094 34.8633 45.0781 36.4454 43.1641C37.5977 41.7578 39.5118 41.2891 41.2305 41.8359L52.1094 45.293C54.7266 43.2813 57.6172 41.6016 60.7032 40.332L63.1446 29.1797C63.5352 27.4023 64.9024 25.9961 66.6993 25.7031C69.3946 25.2344 72.168 25 75 25C77.8321 25 80.6055 25.2344 83.3008 25.6836C85.0977 25.9766 86.4649 27.3828 86.8555 29.1602L89.2969 40.3125C92.3829 41.582 95.2735 43.2617 97.8907 45.2734L108.77 41.8164C110.488 41.2695 112.402 41.7578 113.555 43.1445C115.137 45.0586 116.582 47.0898 117.871 49.2383L118.789 50.8203C119.981 52.9687 121.016 55.1953 121.875 57.5195L121.856 57.5391ZM75 90.625C79.1441 90.625 83.1183 88.9788 86.0486 86.0485C88.9789 83.1183 90.6251 79.144 90.6251 75C90.6251 70.856 88.9789 66.8817 86.0486 63.9515C83.1183 61.0212 79.1441 59.375 75 59.375C70.856 59.375 66.8818 61.0212 63.9515 63.9515C61.0213 66.8817 59.375 70.856 59.375 75C59.375 79.144 61.0213 83.1183 63.9515 86.0485C66.8818 88.9788 70.856 90.625 75 90.625Z" fill="#404040"/>
</svg>
