<svg width="28" height="28" viewBox="0 0 28 28" fill="none" xmlns="http://www.w3.org/2000/svg">
<circle cx="13.6931" cy="13.6931" r="13.6931" fill="#D6B36E"/>
<path d="M14.6439 9.41114L11.5787 12.9143C11.399 13.1197 11.2966 13.4021 11.2966 13.6931C11.2966 13.9841 11.399 14.2665 11.5787 14.4719L14.6439 17.975C14.8037 18.1576 15.0184 18.2574 15.243 18.2574C15.7098 18.2574 16.0892 17.8238 16.0892 17.2904V15.5188H19.2842C19.7261 15.5188 20.083 15.1109 20.083 14.6059V12.7802C20.083 12.2753 19.7261 11.8673 19.2842 11.8673H16.0892V10.0958C16.0892 9.56233 15.7098 9.12872 15.243 9.12872C15.0184 9.12872 14.8037 9.23142 14.6439 9.41114ZM11.2966 18.2574H9.6991C9.25729 18.2574 8.90034 17.8495 8.90034 17.3446V10.0416C8.90034 9.53666 9.25729 9.12872 9.6991 9.12872H11.2966C11.7384 9.12872 12.0954 8.72078 12.0954 8.21585C12.0954 7.71092 11.7384 7.30298 11.2966 7.30298H9.6991C8.37615 7.30298 7.30281 8.52965 7.30281 10.0416V17.3446C7.30281 18.8565 8.37615 20.0832 9.6991 20.0832H11.2966C11.7384 20.0832 12.0954 19.6752 12.0954 19.1703C12.0954 18.6654 11.7384 18.2574 11.2966 18.2574Z" fill="#404040"/>
</svg>
