<svg width="28" height="28" viewBox="0 0 28 28" fill="none" xmlns="http://www.w3.org/2000/svg">
<circle cx="13.6931" cy="13.6931" r="13.6931" fill="#D6B36E"/>
<path d="M20.9922 13.6793C20.9922 14.1286 20.6355 14.4804 20.2313 14.4804H19.4704L19.487 18.4785C19.487 18.5458 19.4823 18.6132 19.4751 18.6806V19.0849C19.4751 19.6364 19.0495 20.0832 18.524 20.0832H18.1435C18.1173 20.0832 18.0912 20.0832 18.065 20.0807C18.0317 20.0832 17.9985 20.0832 17.9652 20.0832L17.1924 20.0807H16.6217C16.0961 20.0807 15.6705 19.6339 15.6705 19.0824V18.4834V16.8862C15.6705 16.4445 15.3305 16.0876 14.9096 16.0876H13.3877C12.9669 16.0876 12.6268 16.4445 12.6268 16.8862V18.4834V19.0824C12.6268 19.6339 12.2012 20.0807 11.6757 20.0807H11.105H10.3464C10.3108 20.0807 10.2751 20.0782 10.2394 20.0757C10.2109 20.0782 10.1824 20.0807 10.1538 20.0807H9.77336C9.24784 20.0807 8.8222 19.6339 8.8222 19.0824V16.2873C8.8222 16.2648 8.8222 16.2399 8.82458 16.2174V14.4779H8.06366C7.63564 14.4779 7.30273 14.1286 7.30273 13.6768C7.30273 13.4522 7.37407 13.2526 7.54052 13.0779L13.635 7.50261C13.8015 7.32792 13.9917 7.30296 14.1582 7.30296C14.3246 7.30296 14.5149 7.35288 14.6575 7.47766L20.7306 13.0804C20.9209 13.2551 21.016 13.4547 20.9922 13.6793Z" fill="#404040"/>
</svg>
