<svg width="150" height="150" viewBox="0 0 150 150" fill="none" xmlns="http://www.w3.org/2000/svg">
<circle cx="75" cy="75" r="73" stroke="#9B0E17" stroke-width="4"/>
<g clip-path="url(#clip0_2173_109)">
<path d="M66.4062 21.2148C61.5234 21.7812 55.996 23.7343 51.8554 26.371C46.5819 29.7304 41.9921 34.9257 39.2187 40.7265C36.7773 45.8437 35.4491 53.207 36.1132 57.914C37.6366 68.6562 46.8359 87.0937 62.3241 110.453C67.539 118.344 69.2968 120.785 69.8241 120.922C70.664 121.137 71.2304 120.844 71.9726 119.809C73.0077 118.344 73.1444 117.992 72.871 117.328C72.4804 116.391 71.8359 116.176 70.5077 116.527C70.3319 116.586 68.9062 114.633 66.2109 110.629C50.7226 87.5038 41.0937 68.7538 39.3554 58.3046C38.2812 51.8984 40.5077 43.3632 44.8827 37.2109C46.5624 34.8476 49.7851 31.6249 52.1484 29.9453C55.664 27.4453 60.0976 25.5507 64.5116 24.6718C66.3085 24.3007 67.3437 24.2226 70.3124 24.2226C73.2812 24.2226 74.3163 24.3007 76.1132 24.6718C81.8749 25.8242 86.7773 28.2656 91.2694 32.2109C93.3593 34.0468 93.7694 34.1835 94.6484 33.4413C95.5077 32.6992 95.3905 31.9374 94.2187 30.746C90.0585 26.4882 83.3593 22.914 77.246 21.7031C73.789 21.0195 69.7265 20.8437 66.4062 21.2148Z" fill="#404040"/>
<path d="M96.1523 34.6719C95.6445 34.8672 95.3125 35.4531 95.3125 36.0781C95.3125 36.332 95.8008 37.2695 96.4063 38.1875C98.6133 41.5469 100.195 45.4531 101.016 49.5547C101.641 52.7188 101.641 57.0352 101.016 59.8086C100.449 62.3477 99.1406 66.3125 97.7539 69.6328C97.168 71.0586 96.6797 72.4258 96.6797 72.6992C96.6797 73.3438 97.5 74.125 98.2031 74.125C99.043 74.125 99.4727 73.5781 100.488 71.1562C102.52 66.3906 104.023 61.3906 104.473 58.0508C105.371 51.4297 103.242 42.8945 99.1211 36.6445C97.793 34.6328 97.207 34.2422 96.1523 34.6719Z" fill="#404040"/>
<path d="M67.2852 38.4804C60.6641 39.6913 55.4492 44.5546 53.6523 51.1757C53.0469 53.4023 53.0469 57.3476 53.6523 59.5742C55.4688 66.2538 60.6836 71.0976 67.3828 72.289C75.1367 73.6757 83.125 69.3007 86.1133 62.0351C87.1289 59.5937 87.3828 58.246 87.3828 55.3749C87.3828 52.5234 87.0508 50.746 86.0547 48.4804C85.3906 46.9765 84.0234 44.8671 83.5938 44.6327C82.5977 44.1054 81.25 44.8671 81.25 45.9413C81.25 46.2538 81.6406 47.0742 82.1289 47.8359C86.2891 54.2617 84.4336 62.8554 77.9688 67.1132C73.5352 70.0234 67.7539 70.1601 63.125 67.4648C61.6211 66.5663 59.0625 63.9687 58.1445 62.4062C57.7344 61.7031 57.1875 60.4335 56.8945 59.5742C56.4648 58.246 56.3867 57.6601 56.3672 55.5702C56.3477 52.6796 56.6406 51.371 57.8516 48.9296C59.0234 46.5859 61.5234 44.0859 63.8672 42.914C66.25 41.7226 67.6172 41.4101 70.4102 41.4101C73.5742 41.4296 75.7031 42.0742 78.3203 43.832C79.3945 44.5742 80.1367 44.5937 80.7617 43.9492C81.2695 43.4609 81.3867 42.7187 81.0547 42.0937C80.7812 41.5663 78.1641 39.9843 76.4844 39.3398C73.7305 38.2656 70.2148 37.9335 67.2852 38.4804Z" fill="#404040"/>
<path d="M84.3748 71.3515C84.0623 71.6054 83.8475 72.1718 83.574 73.5195C83.3787 74.5156 83.1639 75.3945 83.1053 75.4921C83.0467 75.5703 82.7732 75.707 82.4803 75.7851C82.1678 75.8437 81.2107 76.2343 80.3123 76.6054L78.7107 77.289L77.1873 76.2929C74.824 74.75 74.9217 74.7109 71.3475 78.2851C67.7732 81.8593 67.8123 81.7617 69.3553 84.125L70.3514 85.6484L69.6678 87.25C69.2967 88.1484 68.9061 89.1054 68.8475 89.4179C68.7693 89.7109 68.6326 89.9843 68.5545 90.0429C68.4568 90.1015 67.5779 90.3164 66.5818 90.5117C63.9451 91.0585 64.0623 90.8046 64.0623 96C64.0623 101.195 63.9451 100.941 66.5818 101.488C67.5779 101.684 68.4568 101.898 68.5545 101.957C68.6326 102.016 68.7693 102.289 68.8475 102.582C68.9061 102.894 69.2967 103.852 69.6678 104.75L70.3514 106.352L69.3553 107.875C67.8123 110.238 67.7732 110.141 71.3475 113.715C74.9217 117.289 74.824 117.25 77.1873 115.707L78.7107 114.711L80.3123 115.394C81.2107 115.766 82.1678 116.156 82.4803 116.215C82.7732 116.293 83.0467 116.43 83.1053 116.508C83.1639 116.605 83.3787 117.484 83.574 118.48C84.1209 121.117 83.867 121 89.0623 121C94.2576 121 94.0037 121.117 94.5506 118.461C94.7654 117.445 94.9998 116.566 95.0779 116.488C95.1561 116.41 95.5662 116.254 95.9959 116.117C96.4256 115.98 97.3045 115.609 97.9686 115.316C98.6326 115.004 99.2381 114.75 99.3357 114.75C99.4334 114.75 100.176 115.199 100.976 115.727C103.281 117.25 103.203 117.289 106.777 113.715C110.351 110.141 110.312 110.219 108.789 107.914C108.262 107.113 107.812 106.371 107.812 106.273C107.812 106.176 108.066 105.551 108.379 104.906C108.691 104.242 109.062 103.324 109.199 102.855C109.472 101.898 109.629 101.82 111.679 101.469C112.715 101.273 113.222 101.078 113.574 100.727L114.062 100.238V96C114.062 90.8242 114.179 91.0585 111.543 90.5117C110.547 90.3164 109.668 90.1015 109.57 90.0429C109.492 89.9843 109.355 89.7109 109.277 89.4179C109.219 89.1054 108.828 88.1484 108.457 87.25L107.773 85.6484L108.769 84.125C110.312 81.7617 110.351 81.8593 106.777 78.2851C103.203 74.7109 103.301 74.75 100.937 76.2929L99.4139 77.289L97.8123 76.6054C96.9139 76.2343 95.9568 75.8437 95.6443 75.7851C95.3514 75.707 95.0779 75.5703 95.0193 75.4921C94.9607 75.3945 94.7459 74.5156 94.5506 73.5195C94.0037 70.8828 94.2576 71 89.0623 71C85.2732 71 84.7654 71.039 84.3748 71.3515ZM91.8162 75.8437C91.992 76.7226 92.285 77.621 92.4607 77.8164C92.6561 78.0312 93.535 78.4218 94.4529 78.6953C95.3709 78.9882 96.7576 79.5742 97.5779 79.9843C98.3787 80.414 99.2381 80.7656 99.4725 80.7656C99.7068 80.7656 100.351 80.4726 100.879 80.121C103.086 78.6367 102.617 78.5976 104.551 80.5312L106.25 82.2304L105.273 83.6953C104.726 84.496 104.297 85.3554 104.297 85.5898C104.297 85.8242 104.648 86.6835 105.078 87.4843C105.488 88.3046 106.074 89.6914 106.367 90.6093C106.64 91.5273 107.031 92.4062 107.226 92.582C107.402 92.7382 108.32 93.0312 109.258 93.207L110.957 93.539L110.898 95.9804L110.84 98.4218L109.219 98.7539C108.34 98.9296 107.441 99.2226 107.246 99.3984C107.031 99.5937 106.64 100.473 106.367 101.391C106.074 102.309 105.488 103.695 105.078 104.516C104.648 105.316 104.297 106.176 104.297 106.41C104.297 106.644 104.726 107.504 105.273 108.305L106.25 109.769L104.551 111.469C102.617 113.402 103.086 113.363 100.879 111.879C100.351 111.527 99.7068 111.234 99.4725 111.234C99.2381 111.234 98.3787 111.586 97.5779 112.016C96.7576 112.426 95.3709 113.012 94.4529 113.305C93.535 113.578 92.6561 113.969 92.4803 114.164C92.324 114.34 92.0311 115.258 91.8553 116.195L91.5232 117.894L89.0818 117.836L86.6404 117.777L86.3084 116.156C86.1326 115.277 85.8396 114.379 85.6443 114.184C85.4686 113.969 84.6873 113.617 83.9256 113.383C83.1443 113.148 81.7381 112.582 80.8006 112.094C79.8436 111.625 78.8865 111.234 78.6521 111.234C78.4178 111.234 77.7732 111.527 77.2459 111.879C75.0389 113.363 75.5076 113.402 73.574 111.469L71.8748 109.769L72.8514 108.305C73.3982 107.504 73.8279 106.644 73.8279 106.41C73.8279 106.176 73.4764 105.316 73.0467 104.516C72.6365 103.695 72.0506 102.309 71.7576 101.391C71.4842 100.473 71.0936 99.5937 70.9178 99.4179C70.7225 99.2617 69.824 98.9492 68.9256 98.7734L67.285 98.4023V96V93.5976L68.9256 93.2265C69.824 93.0507 70.7225 92.7382 70.9178 92.582C71.0936 92.4062 71.4842 91.5273 71.7576 90.6093C72.0506 89.6914 72.6365 88.3046 73.0467 87.4843C73.4764 86.6835 73.8279 85.8242 73.8279 85.5898C73.8279 85.3554 73.3982 84.496 72.8514 83.6953L71.8748 82.2304L73.574 80.5312C75.5076 78.5976 75.0389 78.6367 77.2459 80.121C77.7732 80.4726 78.4178 80.7656 78.6717 80.7656C78.9256 80.7656 79.6678 80.4726 80.3318 80.1015C81.5818 79.3984 83.1053 78.7929 84.492 78.4414C85.6248 78.1484 85.8982 77.7187 86.2693 75.8046L86.6014 74.1054L89.0428 74.164L91.4842 74.2226L91.8162 75.8437Z" fill="#404040"/>
<path d="M87.0117 85.2578C83.0469 86.0586 79.9609 88.8516 78.5938 92.875C78.3203 93.6562 78.2227 94.5156 78.2227 96C78.2227 99.125 79.2188 101.566 81.3672 103.695C83.4961 105.844 85.9375 106.84 89.0625 106.84C92.1484 106.84 94.5703 105.863 96.6797 103.793C99.8242 100.707 100.781 96.2344 99.2188 92.0352C98.3984 89.8281 97.1484 89.1055 96.0938 90.2383C95.5078 90.8633 95.5469 91.5078 96.2305 92.9727C96.6992 94.0078 96.7773 94.3789 96.7773 96.0195C96.7773 97.7773 96.7383 97.9531 96.0352 99.3594C92.6758 106.176 82.8125 104.73 81.4062 97.2109C80.9766 94.9258 81.8359 92.2695 83.5547 90.5508C85.9961 88.1094 89.3555 87.543 92.5391 89.0664C94.4727 89.9844 95.0781 89.9453 95.6836 88.832C96.1914 87.8359 95.5273 86.957 93.5547 86.0586C91.5234 85.1406 89.082 84.8477 87.0117 85.2578Z" fill="#404040"/>
</g>
<defs>
<clipPath id="clip0_2173_109">
<rect width="100" height="100" fill="white" transform="translate(25 21)"/>
</clipPath>
</defs>
</svg>
