<svg width="150" height="150" viewBox="0 0 150 150" fill="none" xmlns="http://www.w3.org/2000/svg">
<circle cx="75" cy="75" r="73" stroke="#9B0E17" stroke-width="4"/>
<g clip-path="url(#clip0_2173_109)">
<path d="M45.8009 25.1953C42.2463 25.7617 38.8478 27.5391 36.3088 30.1953C34.922 31.6406 34.1408 32.8125 33.2033 34.8242C32.0314 37.3438 31.7384 38.75 31.758 41.7969C31.7775 44.0625 31.8556 44.668 32.3048 46.1914C33.3009 49.4922 35.2345 52.4805 37.6955 54.4531C38.2814 54.9414 38.7892 55.3906 38.8283 55.4492C38.8478 55.5273 38.4572 55.6836 37.9494 55.8203C36.3673 56.2305 33.5744 57.7344 31.8947 59.082C28.3009 61.9141 25.8791 66.1914 25.1955 70.8203C25.0588 71.8164 25.0002 74.6094 25.0392 78.7109C25.0978 84.7656 25.1173 85.0977 25.5275 85.9961C26.172 87.3633 27.5392 88.7305 28.965 89.375L30.1759 89.9414L36.7384 90L43.3205 90.0586L43.3986 91.7578C43.4572 93.0078 43.6134 93.7109 43.9455 94.4336C44.6291 95.8594 46.172 97.3047 47.5197 97.8125C48.6134 98.2227 48.9259 98.2422 56.9338 98.2422H65.215L65.508 98.7891C65.9572 99.6484 66.4455 99.9805 68.7502 100.938L70.9377 101.855L71.4845 103.34C71.7775 104.16 72.2463 105.293 72.5392 105.859C72.8127 106.406 73.047 106.973 73.047 107.109C73.047 107.246 72.6564 108.301 72.1681 109.453C71.1916 111.797 71.1134 112.539 71.6994 113.691C72.2853 114.844 75.4298 117.91 76.5041 118.398C77.6564 118.906 78.2814 118.809 80.84 117.676L82.8517 116.816L84.0431 117.422C84.7072 117.754 85.8986 118.262 86.6994 118.535L88.1642 119.062L89.0236 121.191C90.4298 124.727 90.7033 124.902 95.0392 124.902C98.1447 124.902 98.1838 124.902 99.0041 124.355C99.8634 123.789 100.078 123.418 101.309 120.43L101.856 119.062L103.711 118.359C104.727 117.969 105.918 117.461 106.348 117.246L107.129 116.836L109.375 117.793C111.895 118.848 112.403 118.926 113.574 118.359C114.473 117.93 117.344 115.176 118.145 113.984C118.906 112.832 118.809 111.699 117.715 109.18L116.836 107.148L117.246 106.348C117.461 105.918 117.969 104.727 118.36 103.711L119.063 101.855L121.27 100.938C124.824 99.4727 124.903 99.3359 124.903 95.0195C124.903 90.7031 124.746 90.4492 121.035 88.9648L119.063 88.1641L118.535 86.6992C118.262 85.8984 117.754 84.7266 117.422 84.082L116.836 82.8906L117.695 80.8594C118.809 78.2227 118.906 77.6367 118.399 76.5039C117.891 75.3711 114.746 72.1875 113.613 71.6797C112.461 71.1523 111.856 71.1914 110.02 71.9531C109.141 72.3242 108.379 72.5586 108.32 72.5C108.262 72.4414 108.203 72.0312 108.203 71.582C108.203 70.5078 107.403 67.4023 106.758 65.9375C105.449 62.9688 102.656 59.7461 99.8634 57.9297C98.5548 57.0898 96.2892 56.0547 95.0783 55.7617C94.7658 55.6836 94.5314 55.5469 94.5314 55.4688C94.5314 55.3906 95.0197 54.9414 95.6056 54.4922C99.7072 51.3281 102.227 45.1758 101.582 39.8633C100.957 34.707 98.3009 30.4297 93.9845 27.6562C88.4963 24.1016 81.3088 24.1602 75.7814 27.832C74.1994 28.8867 71.758 31.4062 70.9963 32.7539C70.4494 33.7305 70.4103 33.75 69.7463 33.6328C68.8478 33.457 64.5509 33.457 63.672 33.6328C62.9884 33.75 62.9494 33.7305 62.2072 32.5781C59.297 28.0664 54.4142 25.3125 48.9259 25.0977C47.8517 25.0586 46.4455 25.0977 45.8009 25.1953ZM50.9377 28.6328C52.8713 29.0234 55.6447 30.3711 57.0119 31.582C57.5978 32.0898 58.4572 33.0273 58.9259 33.6719L59.7853 34.8242L58.6525 35.4297C52.2658 38.8477 48.7502 46.6211 50.4103 53.6523C50.547 54.2188 50.6056 54.7461 50.5275 54.8047C50.2736 55.0781 46.3673 54.9414 45.1173 54.6094C40.4689 53.4375 36.6798 49.707 35.4298 45.1172C35.0197 43.5547 34.9611 40.1953 35.3322 38.6719C35.4689 38.0859 35.9767 36.7773 36.465 35.7617C37.2072 34.2188 37.6173 33.6523 38.9455 32.3242C42.1877 29.0625 46.5236 27.7344 50.9377 28.6328ZM87.2853 28.5352C92.1095 29.3164 96.2892 32.9297 97.7736 37.5977C100.059 44.7852 96.0353 52.3047 88.7697 54.4531C87.5783 54.8047 86.7189 54.9219 85.1369 54.9219C83.9845 54.9414 82.9689 54.8828 82.8713 54.8242C82.7345 54.7461 82.7736 54.2969 82.9494 53.5742C83.1252 52.8906 83.2423 51.4648 83.2423 50C83.2423 46.9727 82.8322 45.2734 81.4259 42.3828C80.508 40.5469 80.1955 40.1172 78.4377 38.3789C76.7775 36.7383 74.7463 35.2344 73.7502 34.9023C73.1642 34.707 76.4455 31.2305 78.1838 30.2148C80.8986 28.6133 84.1408 28.0078 87.2853 28.5352ZM69.6095 37.0117C73.2228 37.7734 76.8556 40.625 78.4767 43.9453C79.5509 46.1328 79.9416 47.7148 79.9416 50C79.9416 53.6523 78.672 56.7188 76.0939 59.2969C73.4963 61.8945 70.9572 63.0469 67.3634 63.2227C61.1916 63.5547 55.8986 59.9023 53.965 54.0039C53.5158 52.6562 53.4572 52.1094 53.4572 50C53.4572 47.8906 53.5158 47.3438 53.965 45.9961C55.1369 42.4414 57.4611 39.7461 60.8205 38.0469C63.3009 36.7969 66.6994 36.3867 69.6095 37.0117ZM52.6369 58.9258C53.5744 60.4102 54.922 61.9531 56.1134 62.8711C57.1877 63.6914 57.3634 64.0625 56.6798 64.0625C56.5041 64.0625 55.6252 64.375 54.7267 64.7266C50.1564 66.6211 46.3478 70.5273 44.5509 75.1953C43.6525 77.5195 43.3595 79.4922 43.3595 83.3203V86.7188H37.2658C31.7384 86.7188 31.0744 86.6797 30.3517 86.3477C29.4338 85.918 28.7892 85.1953 28.4963 84.1992C28.3595 83.7305 28.3205 81.3477 28.3595 77.1484C28.4572 70.0781 28.4963 69.7266 29.8634 66.8945C31.6798 63.0859 34.6681 60.4492 38.7697 59.0625C40.2541 58.5547 40.5666 58.5156 45.5666 58.3984C48.4377 58.3203 50.84 58.2031 50.9181 58.125C50.9767 58.0664 51.2697 58.0078 51.5431 58.0078C51.9338 58.0078 52.1877 58.2227 52.6369 58.9258ZM87.7931 58.3984C93.5744 58.5742 94.1994 58.6914 96.9728 60.1172C99.1408 61.2305 101.66 63.6133 102.891 65.7227C103.789 67.2656 104.59 69.5117 104.805 71.0352L104.942 72.0508L103.399 71.5039L101.875 70.9375L101.035 68.9258C99.5705 65.3906 99.258 65.1562 95.4884 65.0781C91.0939 64.9609 90.3908 65.3711 89.0236 68.8281C88.2423 70.8008 88.1252 70.9766 87.5002 71.1914L86.8361 71.4062L85.7228 70.0391C83.7502 67.5781 80.8595 65.5664 77.6955 64.4336L75.9963 63.8281L76.9142 63.0859C78.2033 62.0703 79.883 60.2344 80.6447 59.0039C81.2892 57.9883 81.3283 57.9688 82.0119 58.1055C82.4025 58.1836 85.0002 58.3008 87.7931 58.3984ZM75.1955 67.0703C77.9884 67.793 81.6213 70.0391 83.0666 71.9336C84.1017 73.3008 83.3791 73.3789 80.7033 72.2461C77.3244 70.8008 76.7189 70.9375 73.8283 73.8281C71.0353 76.6211 70.8205 77.3047 71.9923 80.0781C73.1838 82.9297 73.1642 82.6953 72.5392 84.043C72.2463 84.707 71.758 85.918 71.465 86.7188L70.9377 88.1836L68.8283 89.0039C65.7619 90.1953 65.0392 91.1133 65.0392 93.8086V94.9414L56.8947 94.8828L48.7306 94.8242L48.0861 94.375C47.7345 94.1211 47.2853 93.5742 47.0705 93.1641C46.6994 92.4414 46.6798 91.9922 46.6798 86.3477C46.6798 79.8242 46.8361 78.3984 47.715 76.1719C48.5158 74.2188 49.4338 72.8516 51.0744 71.1719C52.8517 69.375 54.6486 68.2422 56.9142 67.4805C59.2189 66.6992 60.2541 66.6211 67.383 66.6797C72.7345 66.7383 74.1603 66.7969 75.1955 67.0703ZM98.1056 70.6641C98.6134 71.9336 99.1603 73.1641 99.3166 73.3789C99.5119 73.6523 100.195 73.9844 101.231 74.2969C102.11 74.5703 103.731 75.2344 104.844 75.7812C105.957 76.3086 106.953 76.7578 107.051 76.7578C107.168 76.7578 108.36 76.2695 109.707 75.6836L112.168 74.6094L112.969 75.332C113.399 75.7227 114.121 76.4258 114.57 76.9141L115.352 77.8125L114.317 80.2539C113.75 81.6016 113.281 82.832 113.281 82.9883C113.281 83.1445 113.672 84.043 114.16 85C114.649 85.9375 115.313 87.5195 115.645 88.5156C115.957 89.4922 116.309 90.4102 116.426 90.5469C116.543 90.6836 117.695 91.2109 119.004 91.7383C120.313 92.2461 121.445 92.7539 121.524 92.8711C121.778 93.2227 121.699 97.0117 121.445 97.207C121.309 97.3047 120.254 97.7734 119.121 98.2227C117.988 98.6719 116.875 99.1797 116.641 99.3359C116.406 99.4922 116.035 100.234 115.723 101.23C115.449 102.109 114.785 103.711 114.258 104.805C113.711 105.879 113.281 106.895 113.281 107.051C113.281 107.207 113.77 108.418 114.336 109.766L115.41 112.207L113.828 113.809L112.246 115.391L110.664 114.707C109.805 114.336 108.594 113.828 107.988 113.613L106.914 113.203L105.156 114.102C104.199 114.59 102.559 115.273 101.504 115.625C99.297 116.348 99.3166 116.328 98.2033 119.18C97.7736 120.293 97.3439 121.309 97.2267 121.426C96.9338 121.777 93.1056 121.777 92.8127 121.426C92.6955 121.309 92.2463 120.273 91.797 119.141C91.3478 118.008 90.8595 116.895 90.7033 116.66C90.5275 116.367 89.9025 116.074 88.8088 115.742C87.8908 115.469 86.2697 114.805 85.1955 114.258C84.1213 113.73 83.1056 113.281 82.9494 113.281C82.7931 113.281 82.1877 113.496 81.6213 113.75C81.0353 114.004 79.9416 114.473 79.1603 114.805L77.7541 115.41L76.1916 113.848L74.6291 112.266L75.0002 111.367C75.1955 110.859 75.6838 109.668 76.0744 108.73L76.7775 107.012L75.7228 104.727C75.1369 103.477 74.4533 101.797 74.2384 101.016C73.9455 100.078 73.672 99.5117 73.3791 99.3359C73.1447 99.1797 71.9142 98.6328 70.6447 98.1445L68.34 97.2266L68.3986 94.9805L68.4572 92.7344L70.8986 91.7578C72.2463 91.2305 73.4377 90.7031 73.5548 90.6055C73.6916 90.5078 74.0236 89.6484 74.3166 88.7109C74.6095 87.7734 75.2736 86.1133 75.8205 85.0195C76.4455 83.75 76.758 82.8906 76.6798 82.6562C76.6017 82.4414 76.1134 81.2891 75.6056 80.0586L74.6486 77.8516L75.2345 77.1094C75.547 76.6992 76.2502 75.9766 76.797 75.5078C77.7541 74.668 77.8322 74.6484 78.3986 74.8828C78.7306 75.0195 79.8634 75.5078 80.9181 75.957C83.0861 76.875 82.9298 76.8945 85.3517 75.6836C86.2697 75.2148 87.7736 74.6094 88.7111 74.3164C89.6486 74.0234 90.508 73.6914 90.6056 73.5547C90.7423 73.3789 91.6994 71.1328 92.5978 68.7891C92.7541 68.3789 92.8713 68.3594 94.9806 68.3594H97.1877L98.1056 70.6641Z" fill="#404040"/>
<path d="M91.1328 77.0703C84.4921 78.5352 79.1796 83.6133 77.2851 90.332C76.7968 92.0508 76.6015 96.3672 76.9336 98.1055C78.3007 105.273 83.2812 110.703 90.3515 112.734C91.6601 113.105 92.3632 113.184 94.9218 113.184C97.4804 113.184 98.2031 113.105 99.5898 112.734C106.445 110.859 111.504 105.508 112.93 98.6328C113.437 96.2305 113.32 92.4414 112.695 90.2539C111.562 86.2891 109.18 82.7539 105.977 80.332C104.551 79.2578 101.367 77.7148 99.6093 77.2461C97.832 76.7578 92.9492 76.6602 91.1328 77.0703ZM98.3007 80.3906C103.008 81.4453 107.09 84.9219 108.906 89.4336C110.019 92.1875 110.254 96.0352 109.473 98.9258C108.379 102.949 105.41 106.543 101.68 108.379C99.5898 109.414 98.1836 109.766 95.7031 109.902C89.5117 110.234 83.9843 106.875 81.3671 101.133C80.4882 99.2188 80.0781 97.2852 80.0781 95.0391C80.0781 92.4219 80.4882 90.6836 81.6796 88.2812C82.539 86.5039 82.9101 85.9961 84.4531 84.4531C85.957 82.9688 86.5234 82.5391 88.1054 81.7383C89.1406 81.2305 90.6445 80.6445 91.4257 80.4688C93.2812 80 96.4257 79.9805 98.3007 80.3906Z" fill="#404040"/>
<path d="M92.1096 83.7109C89.1995 84.4141 86.133 86.8555 84.7268 89.5508C82.383 94.1016 83.1643 99.5508 86.6995 103.125C90.7034 107.187 96.8557 107.793 101.563 104.59C107.637 100.469 108.379 91.8945 103.106 86.6797C101.641 85.2344 99.3752 84.0039 97.5002 83.6133C96.094 83.3203 93.5159 83.3789 92.1096 83.7109ZM97.4807 87.1094C99.1799 87.6367 100.625 88.6523 101.66 90.0586C102.852 91.6797 103.223 92.8711 103.223 95.1172C103.223 96.8359 103.164 97.0703 102.52 98.4375C101.621 100.352 100.352 101.621 98.4377 102.52C97.0705 103.164 96.8362 103.223 95.1174 103.223C92.8518 103.223 91.6799 102.852 90.0393 101.641C86.0159 98.6914 85.5862 92.7148 89.1213 89.1797C91.387 86.9141 94.4338 86.1523 97.4807 87.1094Z" fill="#404040"/>
</g>
<defs>
<clipPath id="clip0_2173_109">
<rect width="100" height="100" fill="white" transform="translate(25 25)"/>
</clipPath>
</defs>
</svg>
