<svg width="150" height="150" viewBox="0 0 150 150" fill="none" xmlns="http://www.w3.org/2000/svg">
<circle cx="75" cy="75" r="73" stroke="#9B0E17" stroke-width="4"/>
<g clip-path="url(#clip0_2173_109)">
<path d="M72.7539 21.1758C72.0508 21.4883 71.6797 22.0938 70.7422 24.5156C70.2344 25.8438 69.6875 26.9961 69.5313 27.0742C69.375 27.1523 68.75 27.4453 68.1446 27.6992L67.0508 28.1875L64.7266 27.1328C63.0664 26.3906 62.1485 26.0781 61.5625 26.0781C60.7617 26.0781 60.6055 26.1758 59.336 27.3867C57.9102 28.7734 57.4219 29.4766 57.4219 30.1797C57.4219 30.4141 57.9102 31.6641 58.4961 32.9727C59.0821 34.2812 59.5703 35.4336 59.5703 35.5312C59.5703 35.6289 59.336 36.3125 59.043 37.0156L58.4961 38.3242L56.0157 39.2617C52.6563 40.5117 52.5391 40.6484 52.5391 43.4219C52.5391 46.5859 52.3828 46.4492 57.5196 48.3633C58.4961 48.7148 58.5352 48.7734 59.043 50.082C59.336 50.8242 59.5703 51.4688 59.5703 51.5273C59.5703 51.6055 59.0821 52.7578 58.4766 54.125C57.1094 57.1914 57.1289 57.4453 58.8477 59.2422C60.1758 60.6094 60.8399 61.0391 61.6406 61.0391C61.9336 61.0391 63.2813 60.5508 64.6094 59.9453L67.0703 58.8711L68.1446 59.3398C68.75 59.6133 69.3555 59.8672 69.5117 59.9062C69.668 59.9453 70.2344 61.1562 70.7813 62.6016C72.0703 65.9805 72.1289 66.0195 75 66.0195C77.8711 66.0195 77.9297 65.9805 79.2188 62.6016C79.7656 61.1562 80.3321 59.9453 80.4883 59.9062C80.6446 59.8672 81.25 59.6133 81.8555 59.3398L82.9492 58.8711L85.3906 59.9453C86.7383 60.5508 88.086 61.0391 88.3594 61.0391C89.1602 61.0391 89.8242 60.6094 91.1524 59.2422C92.8711 57.4453 92.8906 57.1914 91.5235 54.125C90.918 52.7578 90.4297 51.6055 90.4297 51.5273C90.4297 51.4688 90.6641 50.8242 90.9571 50.082C91.4649 48.7734 91.5039 48.7148 92.4805 48.3633C97.6172 46.4492 97.461 46.5859 97.461 43.4219C97.461 40.6484 97.3438 40.5117 93.9844 39.2617L91.5039 38.3242L90.9571 37.0156C90.6641 36.3125 90.4297 35.6289 90.4297 35.5312C90.4297 35.4336 90.918 34.2812 91.5039 32.9727C92.0899 31.6641 92.5781 30.4141 92.5781 30.1797C92.5781 29.4766 92.0899 28.7734 90.6641 27.3867C88.8477 25.6484 88.6719 25.6289 85.2735 27.1523L82.9688 28.1875L81.8555 27.6992C81.25 27.4453 80.625 27.1523 80.4688 27.0742C80.3125 26.9961 79.7656 25.8242 79.2578 24.4961C78.7305 23.1289 78.1055 21.8789 77.8321 21.5859C77.3633 21.1367 77.1875 21.0977 75.2344 21.0586C74.0821 21.0195 72.9688 21.0781 72.7539 21.1758ZM76.7578 26.1953C77.6953 28.7344 78.2031 29.457 79.2578 29.8086C79.6485 29.9453 80.5078 30.2969 81.1524 30.6094C81.7969 30.9023 82.5977 31.1562 82.9297 31.1562C83.2617 31.1562 84.5899 30.6875 85.8594 30.1016L88.1836 29.0273L88.8281 29.6719L89.4727 30.2969L88.3985 32.7578C87.793 34.0859 87.3047 35.3945 87.3047 35.6289C87.3047 35.8633 87.5196 36.4688 87.7735 36.9766C88.0274 37.4844 88.3789 38.3438 88.5547 38.9102C88.7305 39.457 89.1016 40.1211 89.3555 40.375C89.5899 40.6094 90.8789 41.2148 92.168 41.7031L94.5508 42.582L94.4922 43.5391L94.4336 44.4961L92.2266 45.3359C91.0156 45.7852 89.8047 46.293 89.5508 46.4688C89.2969 46.625 88.9258 47.2305 88.711 47.7969C88.4961 48.3633 88.086 49.3203 87.8125 49.9062C87.5391 50.4922 87.3047 51.1953 87.3047 51.4492C87.3047 51.7031 87.793 53.0117 88.418 54.3398L89.5117 56.7617L88.9649 57.3281C88.6524 57.6602 88.3008 57.9141 88.1836 57.9141C88.0469 57.9141 87.168 57.543 86.211 57.1133C83.418 55.8242 83.1055 55.7266 82.2656 56.0391C80.0977 56.8594 78.3789 57.6016 78.1055 57.8555C77.9102 58.0117 77.4414 59.0273 77.0313 60.1211C75.918 63.168 75.8985 63.1875 75 63.1875C74.1016 63.1875 74.0821 63.168 72.9688 60.1211C72.5586 59.0273 72.0899 58.0117 71.8946 57.8555C71.6211 57.6016 69.9024 56.8594 67.7344 56.0391C66.8946 55.7266 66.5821 55.8242 63.7891 57.1133C62.8321 57.543 61.9531 57.9141 61.8164 57.9141C61.6992 57.9141 61.3477 57.6602 61.0352 57.3281L60.4883 56.7617L61.5821 54.3398C62.2071 53.0117 62.6953 51.7031 62.6953 51.4492C62.6953 51.1953 62.461 50.4922 62.1875 49.9062C61.9141 49.3203 61.5039 48.3633 61.2891 47.7969C61.0742 47.2305 60.7031 46.625 60.4492 46.4688C60.1953 46.293 58.9844 45.7852 57.7735 45.3359L55.5664 44.4961L55.5078 43.5391L55.4492 42.582L57.8321 41.7031C59.1406 41.2148 60.4102 40.6289 60.6641 40.375C60.8985 40.1211 61.2696 39.457 61.4453 38.9102C61.6211 38.3438 61.9727 37.4844 62.2266 36.9766C62.4805 36.4688 62.6953 35.8633 62.6953 35.6289C62.6953 35.3945 62.2071 34.0859 61.6016 32.7578L60.5274 30.2969L61.1719 29.6719L61.8164 29.0273L64.1406 30.1016C65.4102 30.6875 66.7383 31.1562 67.0508 31.1562C67.3828 31.1562 68.2227 30.9023 68.9258 30.5898C69.6289 30.2773 70.5078 29.9062 70.8594 29.7891C71.836 29.418 72.3242 28.6758 73.2422 26.1953L74.0821 23.9297H75H75.918L76.7578 26.1953Z" fill="#404040"/>
<path d="M72.9104 33.793C67.5198 34.9649 63.9651 40.6289 65.3323 45.8633C66.2502 49.3789 69.0432 52.25 72.3635 53.1289C73.6916 53.461 76.0549 53.5 77.344 53.2071C80.0393 52.5821 82.676 50.4531 83.887 47.9336C85.8205 43.8125 85.1174 39.6719 81.9534 36.5274C80.3909 34.9844 78.9846 34.2031 76.9924 33.7735C75.4104 33.4414 74.4924 33.4414 72.9104 33.793ZM77.5979 37.0156C79.1213 37.5821 80.508 38.8906 81.2893 40.4922C81.8752 41.6641 81.9338 41.9571 81.9338 43.5586C81.9338 45.1016 81.8752 45.4531 81.3674 46.4688C80.6448 47.9531 79.3948 49.2031 77.969 49.8672C77.012 50.3164 76.6018 50.3946 75.0002 50.3946C73.3987 50.3946 72.9885 50.3164 72.0315 49.8672C70.6057 49.2031 69.3557 47.9531 68.633 46.4688C68.1448 45.4531 68.0666 45.1016 68.0666 43.5586C68.0666 42.0742 68.1448 41.625 68.5745 40.7071C70.2346 37.1719 73.9455 35.6485 77.5979 37.0156Z" fill="#404040"/>
<path d="M33.8867 42.5625C32.7148 43.1094 31.9922 43.8516 31.4648 45.0234C31.0742 45.8828 31.0547 46.2148 31.0547 62.6602V79.418L31.543 79.8867C32.1484 80.5117 32.8906 80.5117 33.4961 79.8867L33.9844 79.418V62.7969V46.1562L34.5508 45.5898L35.1172 45.0234H41.2695C47.1875 45.0234 47.4219 45.0039 47.9297 44.6133C48.5742 44.1055 48.6328 43.0703 48.0469 42.4844C47.6758 42.1133 47.4023 42.0938 41.2695 42.0938C34.9414 42.0938 34.8438 42.0938 33.8867 42.5625Z" fill="#404040"/>
<path d="M101.758 42.4844C101.172 43.0703 101.23 44.1055 101.875 44.6133C102.383 45.0039 102.617 45.0234 108.633 45.0234H114.883L115.449 45.5898L116.016 46.1562V62.6992V79.2226L116.504 79.6914C117.109 80.3164 117.949 80.3359 118.516 79.7305L118.945 79.2812V62.582C118.945 46.2148 118.926 45.8828 118.535 45.0234C118.008 43.8515 117.285 43.1094 116.113 42.5625C115.156 42.0937 115.059 42.0937 108.652 42.0937C102.402 42.0937 102.129 42.1133 101.758 42.4844Z" fill="#404040"/>
<path d="M56.0547 65.9024C54.8633 66.332 54.7461 66.4492 48.0079 73.6758C44.5704 77.3672 44.1407 77.8945 44.1407 78.4805C44.1407 79.2227 44.5508 79.6914 45.3516 79.8867C46.0352 80.0625 46.3672 79.7305 51.9532 73.7344C54.4336 71.0781 56.6797 68.8125 56.9532 68.6758C57.5586 68.4024 57.8711 68.4024 58.4571 68.6758C58.9063 68.8711 72.6758 83.4805 72.8125 83.8906C72.8516 84.0078 71.1328 85.9414 69.0039 88.2266L65.1368 92.3477L65.0391 90.1211C64.9024 87.4844 64.5313 86.4688 63.1446 85.2578C61.543 83.8516 62.1094 83.8906 45.0196 83.8906C27.5 83.8906 28.3789 83.8125 26.6602 85.5117C24.9219 87.2695 25 86.4102 25 102.484C25 115.98 25.0196 116.547 25.3907 117.523C25.8985 118.852 27.1485 120.121 28.4766 120.609C29.4727 120.98 30.0196 121 45 121C62.6954 121 61.6407 121.098 63.418 119.34C64.961 117.797 65.0391 117.348 65.0391 110.707V105.18H75H84.961V110.707C84.961 117.348 85.0391 117.797 86.5821 119.34C88.3594 121.098 87.3047 121 105 121C119.981 121 120.527 120.98 121.523 120.609C122.852 120.121 124.102 118.852 124.609 117.523C124.981 116.566 125 116 125 108.617C125 100.941 124.981 100.727 124.59 100.219C124.043 99.5156 123.027 99.5156 122.481 100.219C122.09 100.727 122.07 100.941 122.07 108.48C122.07 115.805 122.051 116.254 121.68 116.84C120.898 118.129 121.719 118.07 104.941 118.07C90.2149 118.07 89.7266 118.051 89.1211 117.68C87.8321 116.898 87.8907 117.543 87.8907 102.504C87.8907 87.2695 87.8321 87.875 89.2578 87.1719C89.8828 86.8398 91.0547 86.8203 105.039 86.8203C121.699 86.8203 120.898 86.7617 121.68 88.0508C122.012 88.5781 122.07 89.0469 122.07 91.2734C122.07 93.7734 122.09 93.8906 122.559 94.3398C123.164 94.9648 123.906 94.9648 124.512 94.3398C124.981 93.8906 125 93.7734 125 91.1563C125 87.7773 124.766 86.9375 123.34 85.5117C121.836 84.0273 121.231 83.8906 115.898 83.8906H111.543L103.34 75.1211C94.3164 65.4727 94.4922 65.6289 92.1875 65.6289C90.1368 65.6484 89.9219 65.8242 82.2071 74.0859C78.3203 78.2461 75.0782 81.6445 75 81.6445C74.9219 81.6445 71.6797 78.2461 67.793 74.0859C62.5196 68.4414 60.5274 66.4297 59.8829 66.1172C58.6329 65.5117 57.3438 65.4531 56.0547 65.9024ZM93.3399 68.8906C93.6914 69.1445 96.9922 72.582 100.703 76.5664L107.422 83.793L98.2032 83.8906C89.0235 83.9883 88.9649 83.9883 88.0469 84.4375C87.5391 84.6914 86.7578 85.2969 86.3282 85.7852C85.0196 87.2695 84.961 87.7188 84.961 95.4531V102.25H75H65.0391L65.0586 99.457V96.6836L78.0274 82.8164C85.1758 75.1992 91.211 68.8516 91.4453 68.7149C92.1094 68.3633 92.6368 68.4024 93.3399 68.8906ZM60.7422 87.1719C62.168 87.875 62.1094 87.25 62.1094 102.543C62.1094 115.766 62.0899 116.234 61.7188 116.84C60.9375 118.129 61.7383 118.07 45.0196 118.07C28.3008 118.07 29.1016 118.129 28.3204 116.84C27.9493 116.234 27.9297 115.766 27.9297 102.484C27.9297 87.3281 27.8711 87.9922 29.1602 87.2109C29.7657 86.8398 30.2539 86.8203 44.9219 86.8203C58.9454 86.8203 60.1172 86.8398 60.7422 87.1719Z" fill="#404040"/>
<path d="M34.4338 93.9883C33.4573 94.1836 33.0667 95.668 33.7893 96.3906C34.1799 96.7812 34.4338 96.7812 45.0198 96.7812C55.6057 96.7812 55.8596 96.7812 56.2502 96.3906C56.9924 95.6484 56.6799 94.4375 55.6448 94.0664C55.0393 93.8516 35.469 93.793 34.4338 93.9883Z" fill="#404040"/>
<path d="M33.7892 101.469C33.3009 101.957 33.2814 102.855 33.7697 103.441L34.1408 103.91L44.3751 103.969C49.9806 104.008 54.883 103.969 55.2345 103.91C56.5236 103.676 57.09 102.309 56.2501 101.469C55.8595 101.078 55.6056 101.078 45.0197 101.078C34.4337 101.078 34.1798 101.078 33.7892 101.469Z" fill="#404040"/>
<path d="M33.7892 108.5C33.3009 108.988 33.2814 109.887 33.7697 110.473L34.1408 110.941H45.0197H55.8986L56.2697 110.473C56.758 109.887 56.7384 108.988 56.2501 108.5C55.8595 108.109 55.6056 108.109 45.0197 108.109C34.4337 108.109 34.1798 108.109 33.7892 108.5Z" fill="#404040"/>
<path d="M97.5586 93.5C96.5234 94.3203 96.4844 94.5937 96.4844 102.445C96.4844 110.297 96.5234 110.57 97.5586 111.391C98.2812 111.957 99.375 111.937 100.566 111.352C103.789 109.711 112.891 104.477 113.34 103.988C113.77 103.519 113.867 103.227 113.867 102.445C113.867 101.664 113.77 101.371 113.34 100.902C112.91 100.453 103.496 95.0429 100.254 93.3828C99.3555 92.9336 98.2227 92.9726 97.5586 93.5ZM105 99.3593C107.949 101 110.352 102.387 110.352 102.465C110.352 102.582 99.7656 108.5 99.5508 108.5C99.4727 108.5 99.4141 105.785 99.4141 102.445C99.4141 99.1054 99.4727 96.3906 99.5508 96.3906C99.6094 96.3906 102.07 97.7382 105 99.3593Z" fill="#404040"/>
</g>
<defs>
<clipPath id="clip0_2173_109">
<rect width="100" height="100" fill="white" transform="translate(25 21)"/>
</clipPath>
</defs>
</svg>
