<svg width="150" height="150" viewBox="0 0 150 150" fill="none" xmlns="http://www.w3.org/2000/svg">
<g clip-path="url(#clip0_2173_109)">
<path d="M74.5 71C81.0925 71 87.415 68.3661 92.0767 63.6777C96.7383 58.9893 99.3571 52.6304 99.3571 46C99.3571 39.3696 96.7383 33.0107 92.0767 28.3223C87.415 23.6339 81.0925 21 74.5 21C67.9075 21 61.585 23.6339 56.9233 28.3223C52.2617 33.0107 49.6429 39.3696 49.6429 46C49.6429 52.6304 52.2617 58.9893 56.9233 63.6777C61.585 68.3661 67.9075 71 74.5 71ZM65.6252 80.375C46.4969 80.375 31 95.9609 31 115.199C31 118.402 33.5828 121 36.7676 121H112.232C115.417 121 118 118.402 118 115.199C118 95.9609 102.503 80.375 83.3748 80.375H65.6252Z" fill="#404040"/>
</g>
<circle cx="75" cy="75" r="73" stroke="#9B0E17" stroke-width="4"/>
<defs>
<clipPath id="clip0_2173_109">
<rect width="87" height="100" fill="white" transform="translate(31 21)"/>
</clipPath>
</defs>
</svg>
