<svg width="150" height="150" viewBox="0 0 150 150" fill="none" xmlns="http://www.w3.org/2000/svg">
<circle cx="75" cy="75" r="73" stroke="#9B0E17" stroke-width="4"/>
<path d="M53.4374 32.4751C52.1249 33.3751 52.0312 33.6376 51.9749 36.9188L51.9187 39.8813L48.3187 39.9938C44.2499 40.1063 42.6937 40.4063 40.4249 41.5313C37.3312 43.0688 35.0812 45.3376 33.5624 48.4688C31.9312 51.8251 32.0249 50.2501 32.0249 75.0001C32.0249 99.75 31.9312 98.175 33.5624 101.531C35.5124 105.544 38.8499 108.3 43.2749 109.556C44.6999 109.95 44.9999 109.95 60.1312 110.025L75.5437 110.081L75.6374 109.65C75.6937 109.406 75.8624 108.244 76.0312 107.063C76.1999 105.881 76.3687 104.719 76.4062 104.475L76.4999 104.063H61.6499C52.2937 104.063 46.3312 103.988 45.5624 103.856C43.8187 103.594 42.1874 102.769 40.8562 101.494C39.5437 100.238 38.9062 99.2625 38.4187 97.6688C38.0812 96.6 38.0624 95.7375 38.0624 83.2313V69.9376L71.0249 69.9751L103.969 70.0313V72.8063V75.5813L104.437 75.4876C106.275 75.0751 106.969 74.9813 108.375 75.0188L109.969 75.0563V64.1063C109.95 53.4376 109.95 53.1188 109.537 51.5063C108 45.3563 102.994 40.9126 96.7499 40.1438C95.8874 40.0313 94.0124 39.9376 92.5874 39.9376H90.0187L89.9624 36.9563C89.9062 34.2751 89.8687 33.9188 89.5124 33.4313C88.1437 31.5751 85.5562 31.5938 84.4687 33.4688C84.0187 34.2001 83.9999 34.4063 83.9999 37.0876V39.9376H70.9687H57.9374V37.0688C57.9374 34.4626 57.8999 34.1626 57.5062 33.4876C56.7187 32.1001 54.7124 31.6126 53.4374 32.4751ZM51.9374 48.6938C51.9374 51.0001 52.0124 51.6001 52.2937 52.2376C52.8187 53.3813 53.6624 53.9063 54.9749 53.9063C56.1562 53.9063 56.7937 53.5501 57.5249 52.5001C57.8999 51.9188 57.9374 51.6751 57.9374 48.9188V45.9376H70.9687H83.9999V48.9188C83.9999 51.6751 84.0374 51.9188 84.4312 52.5001C85.1437 53.5501 85.7812 53.9063 86.9624 53.9063C88.2749 53.9063 89.1187 53.3813 89.6437 52.2376C89.9249 51.6001 89.9999 51.0001 89.9999 48.6938V45.9376H92.5874C97.1062 45.9376 98.9999 46.5188 101.081 48.5063C102.394 49.7626 103.012 50.7188 103.537 52.3688C103.875 53.4001 103.931 54.1501 103.987 58.7251L104.044 63.9376H71.0624H38.0624V58.7063C38.0624 53.0063 38.1749 52.2188 39.2437 50.4001C39.9562 49.1813 41.8312 47.4938 43.1624 46.8751C44.6999 46.1626 45.8062 45.9938 49.1812 45.9563L51.9374 45.9376V48.6938Z" fill="#404040"/>
<path d="M106.519 80.0812C104.588 80.4562 104.419 80.6062 93.0375 91.95C87.0188 97.9312 81.975 103.087 81.8063 103.387C81.4875 104.006 80.0813 113.325 80.0625 114.937C80.0625 116.756 81.1875 117.938 82.9125 117.938C84.3 117.938 94.1063 116.456 94.65 116.156C94.9313 116.025 100.031 111.019 105.975 105.056C118.5 92.5125 117.844 93.3375 117.844 90C117.844 88.125 117.806 87.975 117.206 86.8687C116.775 86.0625 115.894 85.0312 114.206 83.4C111.731 80.9625 110.85 80.3812 109.088 80.0625C108 79.8562 107.663 79.8562 106.519 80.0812ZM110.081 87.6937C111.619 89.1937 111.938 89.6062 111.938 90.075C111.938 90.5812 110.756 91.8187 101.925 100.669L91.9125 110.681L89.6063 111.019C88.3313 111.206 87.1125 111.375 86.9063 111.375H86.5313L86.8875 108.769L87.2438 106.162L97.3875 96.0187C103.556 89.85 107.681 85.875 107.888 85.875C108.075 85.875 109.069 86.7 110.081 87.6937Z" fill="#404040"/>
</svg>
