<svg width="150" height="150" viewBox="0 0 150 150" fill="none" xmlns="http://www.w3.org/2000/svg">
<circle cx="75" cy="75" r="73" stroke="#9B0E17" stroke-width="4"/>
<path d="M37.7811 36.3001C36.1311 36.6563 34.3124 37.4251 32.9436 38.3251C31.2374 39.4501 29.2311 41.7376 28.3499 43.5376C26.9061 46.4813 26.9811 44.7938 27.0374 69.6938L27.0936 91.9688L27.6936 93.2438C28.8374 95.6438 31.2749 97.5751 33.7686 98.1001C34.8374 98.3251 34.8561 98.3251 34.9686 99.0751C35.1936 100.425 36.3186 102.488 37.4436 103.613C38.6999 104.888 40.6686 105.881 42.2811 106.088L43.4061 106.219L43.6311 107.4C44.3624 111.075 46.9874 113.531 50.7186 114.019C51.7124 114.131 62.8874 114.188 84.2811 114.15L116.344 114.094L117.394 113.663C119.7 112.744 121.444 111.056 122.306 108.938L122.719 107.906L122.775 83.6438C122.812 67.6126 122.756 59.0251 122.625 58.3313C121.931 54.5626 118.575 51.7501 114.75 51.7501C114.094 51.7501 114.019 51.6938 113.906 51.1313C113.156 47.4188 110.475 44.8313 106.5 43.9876C106.087 43.8938 105.975 43.7251 105.787 42.8063C105.206 40.0501 103.256 37.8376 100.294 36.6001L99.0936 36.0938L69.0936 36.0563C43.0311 36.0376 38.9249 36.0563 37.7811 36.3001ZM98.8686 40.0501C99.9749 40.4251 101.287 41.5876 101.794 42.6188C102.019 43.0688 102.187 43.5376 102.187 43.6501C102.187 43.8188 99.4874 43.8751 91.6686 43.9126L81.1499 43.9688L80.6061 44.5876C80.3061 44.9251 80.0624 45.4126 80.0624 45.6751C80.0624 46.2751 80.5124 47.1563 80.9436 47.3626C81.1311 47.4563 86.9811 47.5688 93.9374 47.6251L106.594 47.7188L107.587 48.2626C108.694 48.8813 109.612 49.9313 109.987 50.9626L110.212 51.6563L80.0061 51.7501C58.6311 51.8251 49.6124 51.9001 49.2186 52.0501C46.2561 53.1376 44.2124 55.4438 43.6874 58.2938C43.5749 58.9313 43.4999 67.2188 43.4999 80.9063V102.506L42.6374 102.356C41.0811 102.056 39.7874 101.006 39.0561 99.4501L38.6249 98.4938L38.6624 74.9813C38.7186 52.0313 38.7186 51.4501 39.0936 50.7188C39.5811 49.7063 40.7249 48.6001 41.7936 48.1126C42.6374 47.7188 42.8624 47.7188 55.1249 47.6251C61.9874 47.5688 67.7436 47.4563 67.9124 47.3813C68.3811 47.1376 68.8499 45.9938 68.7186 45.3938C68.6624 45.0938 68.3999 44.6626 68.1374 44.4188L67.6499 43.9688L55.3686 43.9126C41.9249 43.8563 41.9811 43.8563 39.7686 44.9626C38.5311 45.5813 36.5624 47.4751 35.9811 48.5813C35.7561 49.0313 35.3999 49.8563 35.1749 50.4376C34.7999 51.4688 34.7811 51.6188 34.7249 72.9938L34.6686 94.5188L34.2561 94.3876C33.4499 94.1626 32.2686 93.3751 31.7249 92.7001C30.5061 91.2376 30.5624 92.2876 30.5624 69.3938C30.5624 46.5376 30.5249 47.4001 31.7436 45.1126C32.5124 43.6501 34.4624 41.7001 35.9249 40.9313C38.2124 39.7126 36.4311 39.7876 68.6436 39.7688C94.8936 39.7501 98.0811 39.7876 98.8686 40.0501ZM116.137 55.7063C116.531 55.8188 117.225 56.2501 117.656 56.6626C119.137 58.0126 119.062 57.1501 119.025 74.7376L118.969 90.3188L114.75 87.1501C112.425 85.3876 110.212 83.7938 109.837 83.6063C108.337 82.8376 105.937 82.8563 104.381 83.6626C103.95 83.8688 101.325 85.7063 98.5311 87.7313C95.7561 89.7563 93.3749 91.4813 93.2624 91.5563C93.1311 91.6313 88.8561 87.3376 82.8936 81.1876C71.2499 69.1876 71.8311 69.6563 68.9061 69.6563C67.4436 69.6563 67.0874 69.7313 66.1874 70.1626C65.4749 70.5188 62.3624 73.1438 56.2499 78.5438L47.3436 86.4188L47.2874 72.8813C47.2499 62.6063 47.2874 59.1376 47.4749 58.5001C47.7561 57.4876 49.1624 55.9876 50.0811 55.7063C50.9999 55.4438 115.181 55.4438 116.137 55.7063ZM69.9936 73.5188C70.2374 73.6313 75.9749 79.4251 82.7436 86.4001C98.7374 102.919 97.7061 101.906 98.6061 101.906C99.9749 101.906 100.875 100.444 100.256 99.2626C100.087 98.9626 99.0374 97.8001 97.8936 96.6563C96.7499 95.5313 95.8124 94.5376 95.8124 94.4626C95.8124 94.3126 104.981 87.6188 105.825 87.1501C106.5 86.7751 107.662 86.7188 108.244 87.0376C108.469 87.1501 111 89.0251 113.869 91.1813L119.062 95.1188V101.063V107.025L118.537 108.019C117.9 109.256 116.887 109.988 115.519 110.25C114.131 110.513 52.1624 110.513 50.7936 110.25C49.4811 109.988 48.5249 109.331 47.8686 108.244L47.3436 107.344V99.3751V91.4063L57.1874 82.7251C62.6061 77.9438 67.2936 73.8563 67.5936 73.6688C68.2124 73.2751 69.2999 73.2001 69.9936 73.5188Z" fill="#404040"/>
<path d="M73.4626 44.1938C72.6001 44.7375 72.3376 45.7125 72.8251 46.6688C73.7064 48.3563 76.3126 47.6063 76.3126 45.6375C76.3126 45.3375 76.0876 44.925 75.6751 44.5125C74.9626 43.8 74.2689 43.6875 73.4626 44.1938Z" fill="#404040"/>
<path d="M97.3873 63.4689C95.4748 64.0689 93.4498 65.7001 92.6436 67.2751C90.2811 71.9251 92.5686 77.3814 97.4811 78.8251C101.512 80.0064 106.012 77.5876 107.25 73.5564C108.6 69.2064 106.237 64.7814 101.831 63.4501C100.781 63.1314 98.4186 63.1314 97.3873 63.4689ZM102.056 67.6501C105.412 69.9751 103.744 75.3751 99.6561 75.3751C95.3061 75.3751 93.8436 69.4689 97.6873 67.4439C98.6061 66.9564 98.8686 66.9189 99.9561 66.9939C100.95 67.0501 101.362 67.1814 102.056 67.6501Z" fill="#404040"/>
</svg>
