<svg width="13" height="13" viewBox="0 0 13 13" fill="none" xmlns="http://www.w3.org/2000/svg">
<path d="M5.43907 2.10816L8.50432 5.6113C8.68404 5.8167 8.78638 6.09912 8.78638 6.3901C8.78638 6.68107 8.68404 6.96349 8.50432 7.16889L5.43907 10.672C5.27932 10.8546 5.06465 10.9545 4.84 10.9545C4.37322 10.9545 3.99381 10.5208 3.99381 9.98738V8.21584H0.798762C0.356947 8.21584 0 7.8079 0 7.30297V5.47723C0 4.97229 0.356947 4.56435 0.798762 4.56435H3.99381V2.79281C3.99381 2.25936 4.37322 1.82574 4.84 1.82574C5.06465 1.82574 5.27932 1.92844 5.43907 2.10816ZM8.78638 10.9545H10.3839C10.8257 10.9545 11.1827 10.5465 11.1827 10.0416V2.73861C11.1827 2.23368 10.8257 1.82574 10.3839 1.82574H8.78638C8.34457 1.82574 7.98762 1.4178 7.98762 0.912871C7.98762 0.407939 8.34457 0 8.78638 0H10.3839C11.7069 0 12.7802 1.22667 12.7802 2.73861V10.0416C12.7802 11.5535 11.7069 12.7802 10.3839 12.7802H8.78638C8.34457 12.7802 7.98762 12.3723 7.98762 11.8673C7.98762 11.3624 8.34457 10.9545 8.78638 10.9545Z" fill="#404040"/>
</svg>
